<?xml version="1.0" encoding="UTF-8" standalone="no"?>
<!-- Created with Inkscape (http://www.inkscape.org/) -->

<svg
   xmlns:dc="http://purl.org/dc/elements/1.1/"
   xmlns:cc="http://creativecommons.org/ns#"
   xmlns:rdf="http://www.w3.org/1999/02/22-rdf-syntax-ns#"
   xmlns:svg="http://www.w3.org/2000/svg"
   xmlns="http://www.w3.org/2000/svg"
   xmlns:sodipodi="http://sodipodi.sourceforge.net/DTD/sodipodi-0.dtd"
   xmlns:inkscape="http://www.inkscape.org/namespaces/inkscape"
   width="210mm"
   height="297mm"
   viewBox="0 0 744.09448819 1052.3622047"
   id="svg2"
   version="1.1"
   inkscape:version="0.91 r13725"
   sodipodi:docname="landscape.svg">
  <defs
     id="defs4" />
  <sodipodi:namedview
     id="base"
     pagecolor="#ffffff"
     bordercolor="#666666"
     borderopacity="1.0"
     inkscape:pageopacity="0.0"
     inkscape:pageshadow="2"
     inkscape:zoom="0.34982086"
     inkscape:cx="434.70281"
     inkscape:cy="551.12787"
     inkscape:document-units="px"
     inkscape:current-layer="layer5"
     showgrid="false"
     inkscape:window-width="958"
     inkscape:window-height="1008"
     inkscape:window-x="-7"
     inkscape:window-y="0"
     inkscape:window-maximized="0" />
  <metadata
     id="metadata7">
    <rdf:RDF>
      <cc:Work
         rdf:about="">
        <dc:format>image/svg+xml</dc:format>
        <dc:type
           rdf:resource="http://purl.org/dc/dcmitype/StillImage" />
        <dc:title />
      </cc:Work>
    </rdf:RDF>
  </metadata>
  <g
     inkscape:groupmode="layer"
     id="layer6"
     inkscape:label="Background"
     style="display:inline">
    <rect
       style="opacity:1;fill:#ffc48b;fill-opacity:1;fill-rule:nonzero;stroke:none;stroke-width:0.1;stroke-linecap:round;stroke-linejoin:round;stroke-miterlimit:4;stroke-dasharray:none;stroke-dashoffset:0;stroke-opacity:1"
       id="rect4141"
       width="1600"
       height="900"
       x="-427.95276"
       y="76.181099" />
    <rect
       y="76.181099"
       x="-427.95276"
       height="900"
       width="1600"
       id="rect4171"
       style="opacity:1;fill:#ffc48b;fill-opacity:1;fill-rule:nonzero;stroke:none;stroke-width:0.1;stroke-linecap:round;stroke-linejoin:round;stroke-miterlimit:4;stroke-dasharray:none;stroke-dashoffset:0;stroke-opacity:1" />
  </g>
  <g
     inkscape:label="Layer 1"
     inkscape:groupmode="layer"
     id="layer1"
     style="display:inline">
    <path
       style="display:inline;opacity:1;fill:#ffa64a;fill-opacity:1;fill-rule:nonzero;stroke:none;stroke-width:0.1;stroke-linecap:round;stroke-linejoin:round;stroke-miterlimit:4;stroke-dasharray:none;stroke-dashoffset:0;stroke-opacity:1"
       d="m 31.427734,289.50586 -150.625004,227.47461 -109.09765,-161.62305 -189.9082,92.9336 -9.75,3.19726 0,524.69336 1600.00002,0 0,-460.67969 L 1062.8574,440.93359 922.85742,509.50586 840,303.79102 600,469.50586 462.85742,372.36133 414.28516,415.21875 322.85742,352.36133 157.14258,506.64844 31.427734,289.50586 Z"
       id="rect4160"
       inkscape:connector-curvature="0" />
  </g>
  <g
     inkscape:groupmode="layer"
     id="layer2"
     inkscape:label="Layer 2"
     style="display:inline">
    <path
       style="fill:#ff8846;fill-opacity:1;fill-rule:evenodd;stroke:none;stroke-width:1px;stroke-linecap:butt;stroke-linejoin:miter;stroke-opacity:1"
       d="M 892.97461,381.62109 763.67578,519.00195 707.10742,482.63672 658.61914,575.57031 501.03516,458.39258 359.61523,563.44922 278.80273,519.00195 185.86719,559.4082 76.771484,478.5957 -28.285156,514.96094 -173.74609,397.7832 l -254.20703,101.6836 0,476.71484 1600.00002,0 0,-503.19336 -56.8379,46.01367 -92.9356,-96.97461 -44.44528,20.20313 -84.85351,-60.60938 z"
       id="path4165"
       inkscape:connector-curvature="0" />
  </g>
  <g
     inkscape:groupmode="layer"
     id="layer3"
     inkscape:label="Layer 3"
     style="display:inline">
    <path
       style="fill:#e2613c;fill-opacity:1;fill-rule:evenodd;stroke:none;stroke-width:1px;stroke-linecap:butt;stroke-linejoin:miter;stroke-opacity:1"
       d="m 1099.0469,539.20508 -92.9356,4.04101 -202.02927,129.29883 -60.60937,24.24414 -185.86914,-60.60937 -218.19141,68.68945 -60.60938,28.28516 -262.640621,-129.30078 -193.949219,80.8125 -250.16601,-66.94532 0,358.46094 1600.00002,0 0,-397.1582 -73,-39.81836 z"
       id="path4173"
       inkscape:connector-curvature="0" />
  </g>
  <g
     inkscape:groupmode="layer"
     id="layer4"
     inkscape:label="Layer 4"
     style="display:inline">
    <path
       style="fill:#c1483e;fill-opacity:1;fill-rule:evenodd;stroke:none;stroke-width:1px;stroke-linecap:butt;stroke-linejoin:miter;stroke-opacity:1"
       d="m 113.13672,329.09375 -218.7654,27.81967 -322.32444,40.98892 0,518.81446 L -254.55859,761.4375 -32.324219,680.62695 92.933594,555.36719 129.29883,430.10742 226.27344,413.94531 238.39648,353.33594 76.771484,369.5 Z"
       id="path4179"
       inkscape:connector-curvature="0"
       sodipodi:nodetypes="cccccccccccc" />
    <path
       style="fill:#c1483e;fill-opacity:1;fill-rule:evenodd;stroke:none;stroke-width:1px;stroke-linecap:butt;stroke-linejoin:miter;stroke-opacity:1"
       d="m 1172.0469,689.23633 -44.7168,11.59375 -339.41018,20.20117 -250.51953,40.40625 -389.44922,214.74414 1024.09573,0 0,-286.94531 z"
       id="path4181"
       inkscape:connector-curvature="0" />
  </g>
  <g
     inkscape:groupmode="layer"
     id="layer5"
     inkscape:label="Layer 5"
     style="display:inline">
    <path
       style="fill:#9d2f42;fill-opacity:1;fill-rule:evenodd;stroke:none;stroke-width:1px;stroke-linecap:butt;stroke-linejoin:miter;stroke-opacity:1"
       d="m 1172.0469,764.29297 -77.041,1.18555 -177.78715,28.28515 -117.17773,96.97461 -17.0879,85.44336 389.09378,0 0,-211.88867 z m -1119.519556,25.42969 -299.003904,4.04101 -181.47656,13.74805 0,168.66992 986.89843,0 -29.625,-32.91602 L 412.14258,886.69727 238.39648,822.04688 52.527344,789.72266 Z"
       id="path4196"
       inkscape:connector-curvature="0" />
  </g>
  <g
     inkscape:groupmode="layer"
     id="layer7"
     inkscape:label="Overlay Text">
    <text
       xml:space="preserve"
       style="font-style:normal;font-weight:normal;font-size:74.10747528px;line-height:125%;font-family:sans-serif;letter-spacing:0px;word-spacing:0px;fill:#ffffff;fill-opacity:1;stroke:none;stroke-width:1px;stroke-linecap:butt;stroke-linejoin:miter;stroke-opacity:1"
       x="-376.83112"
       y="804.8714"
       id="text4205"
       sodipodi:linespacing="125%"><tspan
         sodipodi:role="line"
         id="tspan4207"
         x="-376.83112"
         y="804.8714"
         style="font-style:normal;font-variant:normal;font-weight:normal;font-stretch:normal;font-size:75px;font-family:Roboto;-inkscape-font-specification:Roboto">Good morning.</tspan></text>
    <text
       xml:space="preserve"
       style="font-style:normal;font-weight:normal;font-size:74.10747528px;line-height:125%;font-family:sans-serif;letter-spacing:0px;word-spacing:0px;fill:#ffffff;fill-opacity:1;stroke:none;stroke-width:1px;stroke-linecap:butt;stroke-linejoin:miter;stroke-opacity:1"
       x="-376.83112"
       y="865.12665"
       id="text4209"
       sodipodi:linespacing="125%"><tspan
         sodipodi:role="line"
         id="tspan4211"
         x="-376.83112"
         y="865.12665"
         style="font-style:normal;font-variant:normal;font-weight:normal;font-stretch:normal;font-size:50px;font-family:Roboto;-inkscape-font-specification:Roboto">It is 9:48am.</tspan></text>
    <g
       id="g4273"
       transform="translate(11.428572,57.142853)">
      <text
         sodipodi:linespacing="125%"
         id="text4209-8"
         y="866.16388"
         x="-345.72989"
         style="font-style:normal;font-weight:normal;font-size:62.89450836px;line-height:125%;font-family:sans-serif;letter-spacing:0px;word-spacing:0px;fill:#ffffff;fill-opacity:1;stroke:none;stroke-width:1px;stroke-linecap:butt;stroke-linejoin:miter;stroke-opacity:1"
         xml:space="preserve"><tspan
           style="font-style:normal;font-variant:normal;font-weight:normal;font-stretch:normal;font-size:37.5px;font-family:Roboto;-inkscape-font-specification:Roboto"
           y="866.16388"
           x="-345.72989"
           id="tspan4211-6"
           sodipodi:role="line">Toronto</tspan></text>
      <path
         inkscape:connector-curvature="0"
         id="path4269"
         d="m -372.90523,870.64652 c -0.1657,-0.16573 -1.54632,-2.14733 -2.17138,-3.11661 -0.21729,-0.33696 -0.58693,-0.90695 -0.82142,-1.26665 -1.66803,-2.55868 -4.12228,-7.02645 -5.04137,-9.1774 -0.0891,-0.20858 -0.28401,-0.65493 -0.43309,-0.99189 -0.30878,-0.69797 -0.97536,-2.44057 -1.18288,-3.09236 -0.89748,-2.81883 -1.17886,-4.26624 -1.22502,-6.30144 -0.0262,-1.15459 -0.0165,-1.32572 0.12181,-2.14977 0.39061,-2.32734 1.44641,-4.38189 3.11431,-6.06032 1.66821,-1.67874 3.7325,-2.73102 6.16976,-3.14507 0.80372,-0.13655 2.63802,-0.13655 3.44173,0 2.43726,0.41405 4.50155,1.46633 6.16975,3.14507 1.66407,1.67456 2.72494,3.73908 3.11419,6.06032 0.136,0.81105 0.14747,1.0024 0.12189,2.03308 -0.0313,1.25752 -0.13643,1.97672 -0.48655,3.32575 -0.23523,0.90631 -0.77924,2.63992 -1.01618,3.23824 -0.089,0.22464 -0.25815,0.65786 -0.37601,0.96272 -0.91856,2.37612 -2.90399,6.40495 -4.87371,9.88975 -1.35789,2.40234 -3.90578,6.54864 -4.1277,6.7172 -0.15679,0.11908 -0.33347,0.094 -0.49813,-0.0706 z m 1.61247,-19.03754 c 0.89581,-0.24977 1.70341,-0.73967 2.36127,-1.4324 0.96858,-1.01992 1.4182,-2.13804 1.42139,-3.53475 0.001,-0.76589 -0.0805,-1.228 -0.33701,-1.89285 -0.45694,-1.18448 -1.38649,-2.19598 -2.56649,-2.79275 -0.16391,-0.0829 -0.54461,-0.22323 -0.84602,-0.31185 -0.48748,-0.14333 -0.64143,-0.16112 -1.39403,-0.16112 -0.75259,0 -0.90654,0.0178 -1.39403,0.16112 -0.30139,0.0886 -0.68211,0.22895 -0.84602,0.31185 -1.17999,0.59677 -2.10954,1.60827 -2.56648,2.79275 -0.25647,0.66485 -0.33875,1.12696 -0.337,1.89285 0.004,1.39671 0.4528,2.51483 1.42138,3.53475 0.78216,0.82361 1.70897,1.32156 2.9053,1.56093 0.0802,0.016 0.50032,0.0223 0.93355,0.0139 0.59492,-0.0115 0.8994,-0.0464 1.24419,-0.14251 z"
         style="fill:#ffffff;fill-opacity:1" />
    </g>
  </g>
</svg>
